<mxfile host="app.diagrams.net" modified="2023-11-28T01:29:30.586Z" agent="Mozilla/5.0 (Windows NT 10.0; Win64; x64) AppleWebKit/537.36 (KHTML, like Gecko) Chrome/119.0.0.0 Safari/537.36" etag="GvfpRh-rgQqULR03uhbc" version="22.1.4" type="google">
  <diagram name="Page-1" id="5d7acffa-a066-3a61-03fe-96351882024d">
    <mxGraphModel grid="1" page="1" gridSize="10" guides="1" tooltips="1" connect="1" arrows="1" fold="1" pageScale="1" pageWidth="1100" pageHeight="850" background="#ffffff" math="0" shadow="0">
      <root>
        <mxCell id="0" />
        <mxCell id="1" parent="0" />
        <mxCell id="qtYBWJw_lOrqnSESCZbb-6" value="0" style="swimlane;html=1;fontStyle=0;childLayout=stackLayout;horizontal=1;startSize=26;fillColor=#e0e0e0;horizontalStack=0;resizeParent=1;resizeLast=0;collapsible=1;marginBottom=0;swimlaneFillColor=#ffffff;align=center;rounded=1;shadow=0;comic=0;labelBackgroundColor=none;strokeWidth=1;fontFamily=Verdana;fontSize=12" vertex="1" parent="1">
          <mxGeometry x="437.5" y="1160" width="160" height="140" as="geometry" />
        </mxCell>
        <mxCell id="qtYBWJw_lOrqnSESCZbb-23" value="&lt;br&gt;&lt;span style=&quot;color: rgb(0, 0, 0); font-family: Verdana; font-size: 12px; font-style: normal; font-variant-ligatures: normal; font-variant-caps: normal; letter-spacing: normal; orphans: 2; text-align: center; text-indent: 0px; text-transform: none; widows: 2; word-spacing: 0px; -webkit-text-stroke-width: 0px; background-color: rgb(251, 251, 251); text-decoration-thickness: initial; text-decoration-style: initial; text-decoration-color: initial; float: none; display: inline !important;&quot;&gt;Booking_Cinema_SYS&lt;/span&gt;&lt;br&gt;" style="text;align=center;fontStyle=1;verticalAlign=middle;spacingLeft=3;spacingRight=3;strokeColor=none;rotatable=0;points=[[0,0.5],[1,0.5]];portConstraint=eastwest;html=1;" vertex="1" parent="qtYBWJw_lOrqnSESCZbb-6">
          <mxGeometry y="26" width="160" height="104" as="geometry" />
        </mxCell>
        <mxCell id="qtYBWJw_lOrqnSESCZbb-11" style="edgeStyle=none;html=1;labelBackgroundColor=none;startFill=0;startSize=8;endFill=1;endSize=8;fontFamily=Verdana;fontSize=12;exitX=0.347;exitY=0.998;exitDx=0;exitDy=0;exitPerimeter=0;" edge="1" parent="1" source="qtYBWJw_lOrqnSESCZbb-19">
          <mxGeometry relative="1" as="geometry">
            <mxPoint x="762" y="1015" as="sourcePoint" />
            <mxPoint x="600" y="1220" as="targetPoint" />
          </mxGeometry>
        </mxCell>
        <mxCell id="qtYBWJw_lOrqnSESCZbb-17" value="Entity" style="verticalAlign=top;align=left;spacingTop=8;spacingLeft=2;spacingRight=12;shape=cube;size=10;direction=south;fontStyle=4;html=1;whiteSpace=wrap;" vertex="1" parent="1">
          <mxGeometry x="437.5" y="1380" width="180" height="120" as="geometry" />
        </mxCell>
        <mxCell id="qtYBWJw_lOrqnSESCZbb-18" value="Bank" style="text;align=center;fontStyle=1;verticalAlign=middle;spacingLeft=3;spacingRight=3;strokeColor=none;rotatable=0;points=[[0,0.5],[1,0.5]];portConstraint=eastwest;html=1;" vertex="1" parent="1">
          <mxGeometry x="477.5" y="1427" width="80" height="26" as="geometry" />
        </mxCell>
        <mxCell id="qtYBWJw_lOrqnSESCZbb-19" value="Entity" style="verticalAlign=top;align=left;spacingTop=8;spacingLeft=2;spacingRight=12;shape=cube;size=10;direction=south;fontStyle=4;html=1;whiteSpace=wrap;" vertex="1" parent="1">
          <mxGeometry x="860" y="1180" width="180" height="120" as="geometry" />
        </mxCell>
        <mxCell id="qtYBWJw_lOrqnSESCZbb-20" value="User" style="text;align=center;fontStyle=1;verticalAlign=middle;spacingLeft=3;spacingRight=3;strokeColor=none;rotatable=0;points=[[0,0.5],[1,0.5]];portConstraint=eastwest;html=1;" vertex="1" parent="1">
          <mxGeometry x="910" y="1230" width="80" height="26" as="geometry" />
        </mxCell>
        <mxCell id="qtYBWJw_lOrqnSESCZbb-21" value="Entity" style="verticalAlign=top;align=left;spacingTop=8;spacingLeft=2;spacingRight=12;shape=cube;size=10;direction=south;fontStyle=4;html=1;whiteSpace=wrap;" vertex="1" parent="1">
          <mxGeometry x="110" y="1180" width="180" height="120" as="geometry" />
        </mxCell>
        <mxCell id="qtYBWJw_lOrqnSESCZbb-22" value="Admin" style="text;align=center;fontStyle=1;verticalAlign=middle;spacingLeft=3;spacingRight=3;strokeColor=none;rotatable=0;points=[[0,0.5],[1,0.5]];portConstraint=eastwest;html=1;" vertex="1" parent="1">
          <mxGeometry x="160" y="1230" width="80" height="26" as="geometry" />
        </mxCell>
        <mxCell id="qtYBWJw_lOrqnSESCZbb-24" value="&lt;b&gt;Book Tickets&amp;nbsp;&lt;/b&gt;" style="text;html=1;align=center;verticalAlign=middle;resizable=0;points=[];autosize=1;strokeColor=none;fillColor=none;" vertex="1" parent="1">
          <mxGeometry x="660" y="1190" width="100" height="30" as="geometry" />
        </mxCell>
        <mxCell id="qtYBWJw_lOrqnSESCZbb-26" value="&lt;b&gt;Make Payment&amp;nbsp;&lt;/b&gt;" style="text;html=1;align=center;verticalAlign=middle;resizable=0;points=[];autosize=1;strokeColor=none;fillColor=none;" vertex="1" parent="1">
          <mxGeometry x="655" y="1220" width="110" height="30" as="geometry" />
        </mxCell>
        <mxCell id="qtYBWJw_lOrqnSESCZbb-27" style="edgeStyle=none;html=1;labelBackgroundColor=none;startFill=0;startSize=8;endFill=1;endSize=8;fontFamily=Verdana;fontSize=12;exitX=1.003;exitY=0.919;exitDx=0;exitDy=0;exitPerimeter=0;entryX=0.847;entryY=1.002;entryDx=0;entryDy=0;entryPerimeter=0;" edge="1" parent="1" source="qtYBWJw_lOrqnSESCZbb-23" target="qtYBWJw_lOrqnSESCZbb-19">
          <mxGeometry relative="1" as="geometry">
            <mxPoint x="857.5" y="1282" as="sourcePoint" />
            <mxPoint x="760" y="1400" as="targetPoint" />
          </mxGeometry>
        </mxCell>
        <mxCell id="qtYBWJw_lOrqnSESCZbb-28" value="&lt;b&gt;Invoice order,&lt;/b&gt;&lt;b style=&quot;border-color: var(--border-color);&quot;&gt;Ticket num&lt;/b&gt;" style="text;html=1;align=center;verticalAlign=middle;resizable=0;points=[];autosize=1;strokeColor=none;fillColor=none;" vertex="1" parent="1">
          <mxGeometry x="627.5" y="1250" width="160" height="30" as="geometry" />
        </mxCell>
        <mxCell id="qtYBWJw_lOrqnSESCZbb-30" style="edgeStyle=none;html=1;labelBackgroundColor=none;startFill=0;startSize=8;endFill=1;endSize=8;fontFamily=Verdana;fontSize=12;exitX=0.25;exitY=1;exitDx=0;exitDy=0;entryX=0;entryY=0.784;entryDx=0;entryDy=0;entryPerimeter=0;" edge="1" parent="1">
          <mxGeometry relative="1" as="geometry">
            <mxPoint x="519.5" y="1300" as="sourcePoint" />
            <mxPoint x="518.3800000000001" y="1380" as="targetPoint" />
          </mxGeometry>
        </mxCell>
        <mxCell id="iPbLft_yiKqM8y5Wusxp-4" value="deposit" style="edgeLabel;html=1;align=center;verticalAlign=middle;resizable=0;points=[];fontSize=12;" connectable="0" vertex="1" parent="qtYBWJw_lOrqnSESCZbb-30">
          <mxGeometry x="-0.1796" y="-1" relative="1" as="geometry">
            <mxPoint as="offset" />
          </mxGeometry>
        </mxCell>
        <mxCell id="qtYBWJw_lOrqnSESCZbb-32" style="edgeStyle=none;html=1;labelBackgroundColor=none;startFill=0;startSize=8;endFill=1;endSize=8;fontFamily=Verdana;fontSize=12;exitX=0.32;exitY=-0.009;exitDx=0;exitDy=0;entryX=0.016;entryY=0.312;entryDx=0;entryDy=0;entryPerimeter=0;exitPerimeter=0;" edge="1" parent="1">
          <mxGeometry relative="1" as="geometry">
            <mxPoint x="289.9999999999999" y="1235.4" as="sourcePoint" />
            <mxPoint x="438.43999999999994" y="1235.4479999999999" as="targetPoint" />
          </mxGeometry>
        </mxCell>
        <mxCell id="iPbLft_yiKqM8y5Wusxp-3" value="update movies/cinema" style="edgeLabel;html=1;align=center;verticalAlign=middle;resizable=0;points=[];fontSize=12;fontStyle=1" connectable="0" vertex="1" parent="qtYBWJw_lOrqnSESCZbb-32">
          <mxGeometry x="-0.4772" y="3" relative="1" as="geometry">
            <mxPoint x="31" y="-12" as="offset" />
          </mxGeometry>
        </mxCell>
        <mxCell id="qtYBWJw_lOrqnSESCZbb-35" value="&lt;b&gt;&lt;br&gt;&lt;/b&gt;" style="text;html=1;align=center;verticalAlign=middle;resizable=0;points=[];autosize=1;strokeColor=none;fillColor=none;" vertex="1" parent="1">
          <mxGeometry x="590" y="1320" width="20" height="30" as="geometry" />
        </mxCell>
        <mxCell id="iPbLft_yiKqM8y5Wusxp-1" value="" style="edgeStyle=none;orthogonalLoop=1;jettySize=auto;html=1;rounded=0;exitX=-0.002;exitY=0.912;exitDx=0;exitDy=0;exitPerimeter=0;entryX=0.84;entryY=0.004;entryDx=0;entryDy=0;entryPerimeter=0;" edge="1" parent="1" source="qtYBWJw_lOrqnSESCZbb-23" target="qtYBWJw_lOrqnSESCZbb-21">
          <mxGeometry width="100" relative="1" as="geometry">
            <mxPoint x="320" y="1290" as="sourcePoint" />
            <mxPoint x="420" y="1290" as="targetPoint" />
            <Array as="points" />
          </mxGeometry>
        </mxCell>
        <mxCell id="iPbLft_yiKqM8y5Wusxp-2" value="get feedback" style="edgeLabel;html=1;align=center;verticalAlign=middle;resizable=0;points=[];fontSize=12;fontStyle=1" connectable="0" vertex="1" parent="iPbLft_yiKqM8y5Wusxp-1">
          <mxGeometry x="0.2763" relative="1" as="geometry">
            <mxPoint x="17" y="-16" as="offset" />
          </mxGeometry>
        </mxCell>
        <mxCell id="PGc4i5KgtV9XFFCpYSGd-1" value="&lt;b&gt;&lt;font style=&quot;font-size: 22px;&quot;&gt;context level&amp;nbsp;&lt;/font&gt;&lt;/b&gt;" style="text;html=1;align=center;verticalAlign=middle;resizable=0;points=[];autosize=1;strokeColor=none;fillColor=none;" vertex="1" parent="1">
          <mxGeometry x="50" y="910" width="160" height="40" as="geometry" />
        </mxCell>
      </root>
    </mxGraphModel>
  </diagram>
</mxfile>
